<svg width="16" height="16" viewBox="0 0 16 16" fill="none" xmlns="http://www.w3.org/2000/svg">
<g clip-path="url(#clip0)">
<path d="M15.6409 12.6447L13.17 10.1734C12.6778 9.68326 11.8628 9.69815 11.3535 10.2076L10.1086 11.4522C10.03 11.4089 9.94854 11.3636 9.86295 11.3156C9.07683 10.88 8.00088 10.283 6.86867 9.14995C5.73311 8.01452 5.13554 6.93692 4.69863 6.15029C4.65252 6.06695 4.60835 5.9866 4.56472 5.9103L5.40022 5.07605L5.81098 4.66478C6.32107 4.15455 6.33514 3.33974 5.84412 2.84813L3.37317 0.376627C2.88215 -0.114299 2.06675 -0.099406 1.55665 0.410826L0.860256 1.11122L0.879286 1.13012C0.645775 1.42807 0.450646 1.77172 0.305436 2.14231C0.171581 2.49505 0.0882431 2.83167 0.0501366 3.16897C-0.276136 5.87385 0.959912 8.3459 4.31439 11.7004C8.95129 16.337 12.688 15.9867 12.8492 15.9696C13.2003 15.9277 13.5368 15.8438 13.8788 15.711C14.2461 15.5675 14.5895 15.3726 14.8873 15.1396L14.9025 15.1531L15.608 14.4623C16.1171 13.9522 16.1317 13.1371 15.6409 12.6447Z" fill="white" fill-opacity="0.5"/>
</g>
<defs>
<clipPath id="clip0">
<rect width="16" height="16" fill="white"/>
</clipPath>
</defs>
</svg>
