<svg width="19" height="20" viewBox="0 0 19 20" fill="none" xmlns="http://www.w3.org/2000/svg">
<g clip-path="url(#clip0)">
<path d="M16.4395 0H2.56021C1.14623 0 -7.62939e-05 1.20659 -7.62939e-05 2.69504V17.3049C-7.62939e-05 18.7933 1.14619 19.9999 2.56021 19.9999H9.40539L9.41705 12.853H7.65313C7.4239 12.853 7.23785 12.6579 7.23696 12.4166L7.2285 10.1129C7.22762 9.87025 7.41423 9.67308 7.64472 9.67308H9.40543V7.44709C9.40543 4.86384 10.9042 3.45724 13.0934 3.45724H14.8898C15.1197 3.45724 15.3061 3.65339 15.3061 3.89537V5.83789C15.3061 6.07978 15.1198 6.27587 14.8901 6.27602L13.7876 6.27655C12.5971 6.27655 12.3666 6.87207 12.3666 7.74602V9.67313H14.9826C15.2319 9.67313 15.4253 9.90225 15.3959 10.1628L15.1365 12.4666C15.1117 12.687 14.9341 12.8531 14.7232 12.8531H12.3782L12.3666 20H16.4395C17.8535 20 18.9998 18.7934 18.9998 17.305V2.69504C18.9997 1.20659 17.8535 0 16.4395 0Z" fill="white"/>
</g>
<defs>
<clipPath id="clip0">
<rect width="19" height="20" fill="white"/>
</clipPath>
</defs>
</svg>
